# xmcd CD database file
#
# Track frame offsets:
#	150
#	17497
#	33040
#	54425
#	79820
#	107130
#	130377
#	153112
#	175345
#	190755
#	226087
#	242262
#
# Disc length: 3491 seconds
#
# Revision: 2
# Processed by: cddbd v1.5.2PL0 Copyright (c) Steve Scherf et al.
# Submitted via: CDex 1.51
#
DISCID=810da10c
DTITLE=Joe Bonamassa - A New Day Yesterday
DYEAR=2000
DGENRE=Blues
TTITLE0=Cradle Rock
TTITLE1=Walk In My Shadows
TTITLE2=A New Day Yesterday
TTITLE3=I Know Where I Belong
TTITLE4=Miss You, Hate You
TTITLE5=Nuthin' I Wouldn't Do (For A Woman Like You)
TTITLE6=Colour And Shape
TTITLE7=Headaches To Heartbreaks
TTITLE8=Trouble Waiting
TTITLE9=If Heartaches Were Nickels
TTITLE10=Current Situation
TTITLE11=Don't Burn Down That Bridge
EXTD=YEAR: 2000
EXTT0=
EXTT1=
EXTT2=
EXTT3=
EXTT4=
EXTT5=
EXTT6=
EXTT7=
EXTT8=
EXTT9=
EXTT10=
EXTT11=
PLAYORDER=
